<svg xmlns="http://www.w3.org/2000/svg" viewBox="0 0 256 256" width="256" height="256">
  <!-- Inner ring -->
  <path d="M 128 128 L 128 78 A 50 50 0 0 1 178 128 Z" fill="#76c6ff" stroke="#363636" stroke-width="2"/>
  <path d="M 128 128 L 178 128 A 50 50 0 0 1 128 178 Z" fill="#B8B8B8" stroke="#363636" stroke-width="2"/>
  <path d="M 128 128 L 128 178 A 50 50 0 0 1 78 128 Z" fill="#76c6ff" stroke="#363636" stroke-width="2" opacity="0.6"/>
  <path d="M 128 128 L 78 128 A 50 50 0 0 1 128 78 Z" fill="#B8B8B8" stroke="#363636" stroke-width="2" opacity="0.6"/>
  <!-- Outer ring segments -->
  <path d="M 128 78 L 128 38 A 90 90 0 0 1 193 60 L 163 85 A 50 50 0 0 0 128 78 Z" fill="#76c6ff" stroke="#363636" stroke-width="1.5" opacity="0.8"/>
  <path d="M 163 85 L 193 60 A 90 90 0 0 1 218 128 L 178 128 A 50 50 0 0 0 163 85 Z" fill="#76c6ff" stroke="#363636" stroke-width="1.5" opacity="0.5"/>
</svg>
