<?xml version="1.0" encoding="UTF-8" standalone="no"?>
<svg
   class="svg-icon"
   style="width: 1em; height: 1em;vertical-align: middle;fill: currentColor;overflow: hidden;"
   viewBox="0 0 1024 1024"
   version="1.1"
   id="svg2"
   sodipodi:docname="chart-icon-world-map.svg"
   inkscape:version="1.4.2 (ebf0e940, 2025-05-08)"
   inkscape:export-filename="../src/assets/chart-icon-world-map.png"
   inkscape:export-xdpi="24"
   inkscape:export-ydpi="24"
   xmlns:inkscape="http://www.inkscape.org/namespaces/inkscape"
   xmlns:sodipodi="http://sodipodi.sourceforge.net/DTD/sodipodi-0.dtd"
   xmlns="http://www.w3.org/2000/svg"
   xmlns:svg="http://www.w3.org/2000/svg">
  <defs
     id="defs2" />
  <sodipodi:namedview
     id="namedview2"
     pagecolor="#ffffff"
     bordercolor="#000000"
     borderopacity="0.25"
     inkscape:showpageshadow="2"
     inkscape:pageopacity="0.0"
     inkscape:pagecheckerboard="0"
     inkscape:deskcolor="#d1d1d1"
     inkscape:zoom="0.78808594"
     inkscape:cx="486.62206"
     inkscape:cy="612.87732"
     inkscape:window-width="1712"
     inkscape:window-height="925"
     inkscape:window-x="125"
     inkscape:window-y="30"
     inkscape:window-maximized="0"
     inkscape:current-layer="svg2" />
  <path
     d="m 817.80254,600.94722 c 0,-2.687 -19.755,-28.658 -25.074,-47.464 -5.319,-18.807 -15.196,-31.344 -9.118,-34.031 6.078,-2.687 4.559,24.18 16.716,17.015 12.157,-7.164 34.951,-3.582 2.279,-41.195 l 1.52,-12.538 c 0,0 30.392,0 34.951,-22.389 4.559,-22.389 -21.275,-53.733 -18.235,-57.315 3.039,-3.582 16.278,3.582 18.776,7.164 2.498,3.582 13.895,31.344 23.773,29.553 3.014,-0.547 3.745,-3.532 3.051,-8.024 1.492,2.259 6.606,4.129 23.542,-2.701 26.593,-10.725 -4.559,-24.191 -4.559,-24.191 l 7.598,-14.339 -11.359,-9.851 -7.878,11.642 c 0,0 -2.038,34.926 -7.878,36.739 0,0 -0.004,0.026 -0.006,0.031 -2.514,-10.518 -10.645,-26.963 -16.948,-41.248 -3.072,-6.962 4.611,2.021 9.118,-3.582 9.986,-12.416 26.593,-18.807 -8.358,-42.986 -15.956,2.687 -25.074,-21.493 -12.157,-19.702 12.917,1.791 35.271,-7.221 40.59,-6.325 5.319,0.896 3.479,18.863 3.479,18.863 0,0 15.706,21.493 17.476,25.075 1.77,3.582 0.76,-22.389 0.76,-22.389 0,0 -17.476,-11.642 -12.157,-17.015 5.319,-5.373 13.677,-0.896 18.995,-3.582 5.319,-2.687 0,-17.911 0,-17.911 0,0 -24.314,-10.747 -28.873,-17.911 -4.559,-7.164 -39.51,-7.164 -56.985,-5.373 -17.476,-8.06 -77.5,-8.955 -77.5,-8.955 l -96.495,-19.702 c 0,0 7.091,15.523 0,19.105 -7.091,3.582 -23.301,-7.164 -26.34,0 -3.039,7.164 -24.314,13.135 -27.353,15.523 -3.039,2.388 -11.144,13.135 -11.144,13.135 l -6.078,-9.553 -3.546,9.553 -10.637,8.657 -4.562,-6.453 -3.036,-4.294 h 12.157 c 0,0 5.319,-13.433 -17.476,-10.747 -20.515,-8.956 -35.711,-3.582 -42.549,1.791 -6.838,5.373 -11.397,17.015 -17.476,19.702 -6.079,2.687 -5.319,25.971 0,25.971 h 18.236 l 6.838,-8.06 c 0,0 9.118,-34.031 12.917,-24.18 3.799,9.851 -18.235,20.598 13.677,20.598 -9.633,14.33 -21.275,18.807 -21.275,18.807 h -19.755 c 0,0 -21.275,12.538 -25.074,15.224 -3.799,2.687 -18.235,-15.224 -18.235,-15.224 0,0 4.559,23.284 4.559,34.926 0,11.642 -18.995,15.224 -18.995,15.224 0,0 3.039,25.075 3.799,37.613 -9.118,8.956 -9.118,25.075 -9.118,25.075 l -13.677,8.06 -6.078,49.255 c 0,0 -9.118,15.224 0,20.598 9.118,5.373 24.314,31.344 24.314,31.344 0,0 15.956,3.582 22.794,0 6.838,-3.582 9.877,-24.18 18.995,-5.373 9.118,18.807 9.877,2.687 9.877,2.687 0,0 12.157,8.06 3.799,29.553 5.319,6.269 9.118,14.329 9.118,33.135 v 38.509 c 0,0 24.314,56.42 19.755,69.853 -4.559,13.433 16.716,-4.478 24.314,0 7.598,4.478 31.152,-42.091 28.113,-58.211 -3.039,-16.12 18.995,-22.389 20.515,-30.449 1.52,-8.06 -1.52,-32.24 -9.877,-39.404 -8.358,-7.164 51.667,-58.211 41.789,-72.539 -9.878,-14.329 -19.755,9.851 -27.353,5.373 -7.598,-4.478 -5.319,-13.433 -5.319,-13.433 0,0 45.054,-3.582 52.539,-22.389 7.485,-18.807 15.083,-47.464 40.157,-2.687 25.074,44.777 34.951,62.688 41.029,56.42 6.078,-6.268 -15.196,-42.986 0,-47.464 15.196,-4.478 5.319,-20.598 16.716,-20.598 11.397,0 55.466,100.302 41.029,85.973 -14.436,-14.329 -20.515,-8.06 -20.515,-8.06 0,0 19.755,19.702 34.951,51.046 9.877,-0.896 31.152,0.896 31.152,0.896 0,0 -16.715,-7.164 -16.715,-9.851 z m 35.598,-10.919 5.431,10.92 c 0,-10e-4 0.734,-8.163 -5.431,-10.92 z"
     fill="#35A0D6"
     id="path1"
     style="fill:#76c6ff;fill-opacity:1;stroke:#363636;stroke-width:3;stroke-dasharray:none;stroke-opacity:1" />
  <path
     d="m 836.79754,549.00622 c 0,0 -13.676,14.329 -18.235,17.911 -4.559,3.582 5.319,28.658 23.554,23.284 5.235,-1.542 8.803,-1.283 11.285,-0.173 l -7.486,-15.051 c 0,-10e-4 4.558,-25.971 -9.118,-25.971 z m 80.539,79.703 6.078,-20.598 15.956,9.851 c 0,0 11.566,-8.955 -30.308,-37.613 0,0 -18.32,3.582 -21.359,-5.373 -3.039,-8.956 0,23.284 0,23.284 l 13.022,2.687 8.337,17.015 c 0,0 13.761,41.195 0,32.24 -13.761,-8.956 -15.281,1.791 -13.761,-8.956 1.52,-10.747 -6.559,-19.702 -12.017,-14.329 -5.458,5.373 -33.571,19.702 -41.169,36.718 -7.598,17.016 -9.878,0 -9.878,0 l -9.877,13.433 8.358,10.747 -8.358,9.851 c 0,0 -13.607,23.284 -4.904,27.762 8.703,4.478 53.532,-8.06 53.532,-8.06 l 12.297,24.18 c 0,0 2.14,23.284 7.458,24.18 5.318,0.896 13.845,-23.284 18.32,-27.762 4.474,-4.478 21.19,-9.851 30.308,-47.464 9.117,-37.613 -22.035,-61.793 -22.035,-61.793 z m -573.653,-327.771 c 9.118,11.642 15.956,19.702 18.235,19.702 2.279,0 55.466,-36.129 55.466,-36.129 0,0 25.256,-20.311 19.755,-36.129 -19.755,-30.73 -90.417,-6.55 -104.853,-2.072 -14.436,4.478 9.118,-9.851 9.118,-9.851 0,0 -37.182,-1.791 -47.083,5.373 -9.902,7.164 -30.417,23.284 -33.456,23.284 -3.039,0 -17.476,-8.06 -17.476,-8.06 l -51.667,10.747 c 0,0 -18.995,9.652 -32.672,10.647 -13.677,0.995 -53.946,-9.752 -53.946,-9.752 0,0 -38.749997,39.404 -43.308997,39.404 -4.559,0 -21.275,16.12 -16.716,18.807 4.559,2.687 24.314,-25.971 46.347997,-8.06 22.034,17.911 31.152,24.18 22.794,51.942 -8.358,27.762 -3.799,86.868 11.397,103.884 15.196,17.015 40.27,12.538 50.907,30.449 10.637,17.911 19.755,30.449 34.191,34.926 14.436,4.477 -4.559,35.822 -0.76,47.464 3.799,11.642 10.637,33.135 10.637,33.135 0,0 9.877,23.284 25.833,34.031 15.956,10.747 -18.235,155.826 44.829,163.886 -13.677,-42.091 -18.995,-67.166 -8.358,-70.748 10.637,-3.582 15.956,-3.582 15.956,-3.582 l 27.353,-68.957 c 0,0 18.995,-4.258 17.476,-5.711 -1.52,-1.453 4.559,-38.171 6.078,-40.857 1.519,-2.686 11.397,-16.12 6.838,-23.284 -4.559,-7.164 -15.956,-18.807 -34.191,-25.075 -8.358,-6.945 -15.196,-28.658 -25.074,-31.344 -9.877,-2.687 -24.314,-21.593 -24.314,-21.593 0,0 -12.917,6.269 -26.593,0 -13.677,-6.269 -42.549,4.577 -42.549,4.577 0,0 3.799,-16.12 -0.76,-25.075 -4.559,-8.956 -11.397,1.791 -11.397,1.791 0,0 5.319,-17.911 2.279,-27.762 -3.039,-9.851 -18.311,7.922 -18.311,7.922 0,0 -15.121,-4.34 -13.601,-29.415 1.52,-25.075 54.706,-10.747 54.706,-10.747 l 3.039,20.598 6.838,-35.512 25.289,-26.574 50.692,-46.276 c 0,0 14.436,25.971 20.515,15.224 -4.112,-8.212 -9.877,-17.911 -3.799,-27.762 -31.912,-49.255 5.319,-50.151 5.319,-50.151 l -21.275,-26.866 c 0,0 -12.157,-7.164 -8.358,-8.956 3.799,-1.791 9.118,-20.598 22.794,-11.642 13.676,8.956 25.833,26.866 25.833,26.866 0,0 -9.115,11.641 0.003,23.283 z"
     fill="#35A0D6"
     id="path2"
     style="fill:#76c6ff;fill-opacity:1;stroke:#363636;stroke-width:3;stroke-dasharray:none;stroke-opacity:1" />
</svg>
